<svg width="50" height="50" viewBox="0 0 50 50" fill="none" xmlns="http://www.w3.org/2000/svg">
<g clip-path="url(#clip0_3696_30539)">
<rect width="50" height="50" rx="25" fill="black"/>
<path d="M23.1131 17.8042C27.4605 21.0308 30.5539 24.0933 32.3931 26.9917C34.2882 29.8354 35.2357 32.9253 35.2357 36.2612C35.2357 40.0893 34.2882 43.7534 32.3931 47.2534C30.4981 50.7534 27.6834 53.3784 23.9491 55.1284C21.7754 56.1128 19.546 56.769 17.2608 57.0972C15.0314 57.4253 12.5233 57.5893 9.73648 57.5893C9.4578 57.5893 9.17913 56.9604 8.90045 55.7026C8.62177 54.3901 8.48242 52.5581 8.48242 50.2065C8.48242 46.4878 8.81685 43.9175 9.48568 42.4956C10.0988 41.0737 10.7397 40.3628 11.4086 40.3628C14.8642 40.3628 17.5952 40.0894 19.6017 39.5425C21.664 38.9956 22.6951 38.312 22.6951 37.4917C22.6951 36.4526 21.6361 34.812 19.5181 32.5698C17.4002 30.3276 13.7216 27.4565 8.48242 23.9565L11.4086 9.19092L51.9564 -8.03564L54.4646 5.08935L23.1131 17.8042Z" fill="#242424"/>
<path d="M24.2092 21.3142C26.3618 22.9165 27.8934 24.4373 28.8041 25.8767C29.7424 27.2889 30.2116 28.8233 30.2116 30.4799C30.2116 32.381 29.7424 34.2006 28.8041 35.9387C27.8658 37.6767 26.4721 38.9803 24.6231 39.8494C23.5468 40.3382 22.4429 40.6641 21.3114 40.827C20.2075 40.99 18.9657 41.0715 17.5858 41.0715C17.4478 41.0715 17.3098 40.7591 17.1718 40.1345C17.0338 39.4827 16.9648 38.573 16.9648 37.4052C16.9648 35.5584 17.1304 34.282 17.4616 33.5759C17.7652 32.8698 18.0825 32.5168 18.4137 32.5168C20.1247 32.5168 21.477 32.381 22.4705 32.1094C23.4916 31.8378 24.0022 31.4984 24.0022 31.091C24.0022 30.575 23.4778 29.7603 22.4291 28.6468C21.3804 27.5333 19.559 26.1076 16.9648 24.3695L18.4137 17.0369L38.4908 8.48218L39.7327 15L24.2092 21.3142Z" fill="#A72F3B"/>
</g>
<defs>
<clipPath id="clip0_3696_30539">
<rect width="50" height="50" rx="25" fill="white"/>
</clipPath>
</defs>
</svg>
